<?xml version="1.0" encoding="UTF-8" standalone="no"?>
<svg
   xmlns:dc="http://purl.org/dc/elements/1.1/"
   xmlns:cc="http://creativecommons.org/ns#"
   xmlns:rdf="http://www.w3.org/1999/02/22-rdf-syntax-ns#"
   xmlns:svg="http://www.w3.org/2000/svg"
   xmlns="http://www.w3.org/2000/svg"
   xmlns:sodipodi="http://sodipodi.sourceforge.net/DTD/sodipodi-0.dtd"
   xmlns:inkscape="http://www.inkscape.org/namespaces/inkscape"
   width="41.7575mm"
   height="52.916664mm"
   viewBox="0 0 41.7575 52.916664"
   version="1.1"
   id="svg8"
   sodipodi:docname="logo-completo-white.svg"
   inkscape:version="1.0.1 (3bc2e813f5, 2020-09-07)">
  <defs
     id="defs2" />
  <sodipodi:namedview
     id="base"
     pagecolor="#ffffff"
     bordercolor="#666666"
     borderopacity="1.0"
     inkscape:pageopacity="0.0"
     inkscape:pageshadow="2"
     inkscape:zoom="0.49497475"
     inkscape:cx="19.149067"
     inkscape:cy="-78.247472"
     inkscape:document-units="mm"
     inkscape:current-layer="Capa_1-2"
     inkscape:document-rotation="0"
     showgrid="false"
     inkscape:window-width="1366"
     inkscape:window-height="705"
     inkscape:window-x="-8"
     inkscape:window-y="-8"
     inkscape:window-maximized="1"
     fit-margin-top="0"
     fit-margin-left="0"
     fit-margin-right="0"
     fit-margin-bottom="0" />
  <metadata
     id="metadata5">
    <rdf:RDF>
      <cc:Work
         rdf:about="">
        <dc:format>image/svg+xml</dc:format>
        <dc:type
           rdf:resource="http://purl.org/dc/dcmitype/StillImage" />
        <dc:title></dc:title>
      </cc:Work>
    </rdf:RDF>
  </metadata>
  <g
     inkscape:label="Layer 1"
     inkscape:groupmode="layer"
     id="layer1"
     transform="translate(-75.883154,-92.982143)">
    <g
       id="Capa_1-2"
       data-name="Capa 1"
       transform="matrix(0.26458333,0,0,0.26458333,75.883157,92.982143)">
      <path
         d="M 1.15,159.06 A 2.84,2.84 0 0 1 0,156.77 2.8,2.8 0 0 1 2.84,154 a 2.93,2.93 0 0 1 1.74,0.55 11.66,11.66 0 0 0 7.07,2.45 c 2.49,0 4,-1 4,-2.61 v -0.08 c 0,-1.54 -0.95,-2.33 -5.57,-3.51 -5.57,-1.42 -9.16,-3 -9.16,-8.45 v -0.08 c 0,-5 4,-8.33 9.67,-8.33 a 16,16 0 0 1 8.77,2.45 2.81,2.81 0 0 1 -1.5,5.21 2.92,2.92 0 0 1 -1.54,-0.43 11.5,11.5 0 0 0 -5.8,-1.86 c -2.33,0 -3.55,1.07 -3.55,2.41 v 0.08 c 0,1.82 1.18,2.41 6,3.63 5.61,1.46 8.77,3.48 8.77,8.29 v 0.08 c 0,5.49 -4.19,8.57 -10.15,8.57 A 17.85,17.85 0 0 1 1.2,159.05"
         fill="#00c18b"
         id="path12"
         style="fill:#ffffff" />
      <path
         d="m 23.89,155.9 v -0.08 c 0,-4.62 3.51,-6.75 8.53,-6.75 a 15.06,15.06 0 0 1 5.17,0.87 v -0.36 c 0,-2.49 -1.54,-3.87 -4.54,-3.87 a 13.72,13.72 0 0 0 -4.15,0.59 2.55,2.55 0 0 1 -0.87,0.16 2.45,2.45 0 0 1 -2.48,-2.46 2.49,2.49 0 0 1 1.62,-2.33 18.43,18.43 0 0 1 6.75,-1.11 c 3.28,0 5.65,0.87 7.15,2.37 1.5,1.5 2.29,3.91 2.29,6.75 v 9.63 a 2.88,2.88 0 0 1 -2.92,2.88 2.69,2.69 0 0 1 -2.88,-2.49 v 0 a 8.14,8.14 0 0 1 -6.4,2.69 c -4,0 -7.27,-2.29 -7.27,-6.48 m 13.78,-1.38 v -1.07 a 9.29,9.29 0 0 0 -3.83,-0.79 c -2.57,0 -4.15,1 -4.15,2.92 v 0.08 c 0,1.62 1.34,2.57 3.28,2.57 2.8,0 4.7,-1.54 4.7,-3.71"
         fill="#00c18b"
         id="path14"
         style="fill:#ffffff" />
      <path
         d="m 47.34,143.58 a 3,3 0 1 1 6,0 v 0.24 c 1.38,-1.78 3.16,-3.4 6.2,-3.4 4.54,0 7.19,3 7.19,7.86 v 10.94 a 3,3 0 1 1 -6,0 v -9 c 0,-2.84 -1.34,-4.31 -3.63,-4.31 -2.29,0 -3.75,1.46 -3.75,4.31 v 9 a 3,3 0 1 1 -6,0 z"
         fill="#00c18b"
         id="path16"
         style="fill:#ffffff" />
      <path
         d="m 71.75,156 v -10 h -0.2 a 2.57,2.57 0 0 1 0,-5.13 h 0.2 v -2.65 a 3,3 0 0 1 6,0 v 2.65 h 2.64 a 2.57,2.57 0 1 1 0,5.13 h -2.64 v 9 c 0,1.38 0.59,2.05 1.93,2.05 0.2,0 0.59,0 0.71,0 a 2.5,2.5 0 0 1 2.49,2.49 2.45,2.45 0 0 1 -1.54,2.25 8.87,8.87 0 0 1 -3.44,0.59 c -3.67,0 -6.16,-1.46 -6.16,-6.36"
         fill="#00c18b"
         id="path18"
         style="fill:#ffffff" />
      <path
         d="m 84.7,155.9 v -0.08 c 0,-4.62 3.51,-6.75 8.53,-6.75 a 15.06,15.06 0 0 1 5.17,0.87 v -0.36 c 0,-2.49 -1.54,-3.87 -4.54,-3.87 a 13.72,13.72 0 0 0 -4.15,0.59 2.56,2.56 0 0 1 -0.87,0.16 2.44,2.44 0 0 1 -2.48,-2.46 2.49,2.49 0 0 1 1.64,-2.31 18.43,18.43 0 0 1 6.75,-1.11 c 3.28,0 5.65,0.87 7.15,2.37 1.5,1.5 2.29,3.91 2.29,6.75 v 9.63 a 2.88,2.88 0 0 1 -2.92,2.88 2.69,2.69 0 0 1 -2.88,-2.49 v 0 a 8.14,8.14 0 0 1 -6.4,2.69 c -4,0 -7.27,-2.29 -7.27,-6.48 m 13.78,-1.38 v -1.07 a 9.3,9.3 0 0 0 -3.83,-0.79 c -2.57,0 -4.15,1 -4.15,2.92 v 0.08 c 0,1.62 1.34,2.57 3.28,2.57 2.8,0 4.7,-1.54 4.7,-3.71"
         fill="#00c18b"
         id="path20"
         style="fill:#ffffff" />
      <path
         d="m 115.49,137.38 a 3,3 0 0 1 3,-3 H 134 a 2.765,2.765 0 1 1 0,5.53 h -12.42 v 5.88 h 10.66 a 2.765,2.765 0 0 1 0,5.53 h -10.66 v 7.9 a 3.04,3.04 0 0 1 -6.08,0 z"
         fill="#00c18b"
         id="path22"
         style="fill:#ffffff" />
      <path
         d="m 148.23,162.46 c -6.36,0 -11.06,-4.46 -11.06,-10.94 v -0.08 c 0,-6 4.3,-11 10.46,-11 a 10,10 0 0 1 10.19,10.19 2.74,2.74 0 0 1 -2.8,2.88 h -11.89 a 4.91,4.91 0 0 0 5.17,4.15 6.93,6.93 0 0 0 4.26,-1.42 2.24,2.24 0 0 1 1.46,-0.47 2.29,2.29 0 0 1 2.33,2.37 2.35,2.35 0 0 1 -0.79,1.78 11,11 0 0 1 -7.34,2.57 m 3.87,-12.71 c -0.36,-2.69 -1.94,-4.5 -4.46,-4.5 -2.52,0 -4.11,1.78 -4.58,4.5 z"
         fill="#00c18b"
         id="path24"
         style="fill:#ffffff" />
      <path
         d="m 22.56,182 v 0 a 12.4,12.4 0 0 1 12.64,-12.71 12.85,12.85 0 0 1 8.4,2.77 2.15,2.15 0 0 1 0.84,1.72 2.15,2.15 0 0 1 -3.44,1.68 8.9,8.9 0 0 0 -5.85,-2.21 c -4.66,0 -8.09,3.85 -8.09,8.65 v 0.1 c 0,4.8 3.4,8.68 8.09,8.68 a 8.78,8.78 0 0 0 6.13,-2.35 2,2 0 0 1 1.3,-0.49 2,2 0 0 1 1.33,3.54 A 12.52,12.52 0 0 1 35,194.64 12.33,12.33 0 0 1 22.56,182"
         fill="#00c18b"
         id="path26"
         style="fill:#ffffff" />
      <path
         d="m 46.37,188.9 v -0.07 c 0,-4 3.12,-6 7.63,-6 a 15.43,15.43 0 0 1 5,0.77 v -0.46 c 0,-2.63 -1.61,-4 -4.59,-4 a 11,11 0 0 0 -4.1,0.73 2.39,2.39 0 0 1 -0.67,0.1 1.76,1.76 0 0 1 -1.79,-1.75 1.85,1.85 0 0 1 1.15,-1.64 15.87,15.87 0 0 1 6,-1.08 c 2.77,0 4.83,0.73 6.13,2.07 a 7.67,7.67 0 0 1 2,5.71 v 9.1 a 2,2 0 0 1 -2.07,2 1.91,1.91 0 0 1 -2.07,-1.79 v -0.7 a 7.52,7.52 0 0 1 -6,2.7 c -3.47,0 -6.55,-2 -6.55,-5.71 M 59,187.57 v -1.26 a 11.79,11.79 0 0 0 -4.2,-0.73 c -2.73,0 -4.34,1.16 -4.34,3.08 v 0.07 c 0,1.79 1.58,2.8 3.61,2.8 2.8,0 4.94,-1.61 4.94,-4"
         fill="#00c18b"
         id="path28"
         style="fill:#ffffff" />
      <path
         d="m 66.75,177.66 a 2.09,2.09 0 0 1 2.1,-2.14 2.12,2.12 0 0 1 2.15,2.14 v 1.16 a 7.4,7.4 0 0 1 6.3,-3.47 c 4.34,0 8.58,3.43 8.58,9.59 V 185 c 0,6.13 -4.2,9.59 -8.58,9.59 A 7.55,7.55 0 0 1 71,191.33 v 6.55 a 2.12,2.12 0 0 1 -4.24,0 z M 81.56,185 v -0.07 c 0,-3.57 -2.42,-5.92 -5.29,-5.92 -2.87,0 -5.39,2.38 -5.39,5.92 V 185 c 0,3.54 2.52,5.92 5.39,5.92 2.87,0 5.29,-2.28 5.29,-5.92"
         fill="#00c18b"
         id="path30"
         style="fill:#ffffff" />
      <path
         d="m 88.77,170.76 a 2.45,2.45 0 0 1 4.83,0 V 171 a 2.44,2.44 0 0 1 -4.83,0 z m 0.32,6.9 a 2.09,2.09 0 0 1 2.1,-2.14 2.12,2.12 0 0 1 2.14,2.14 v 14.64 a 2.12,2.12 0 0 1 -4.24,0 z"
         fill="#00c18b"
         id="path32"
         style="fill:#ffffff" />
      <path
         d="m 98.33,189.11 v -9.73 h -0.7 a 1.82,1.82 0 1 1 0,-3.64 h 0.7 v -3.15 a 2.12,2.12 0 0 1 4.24,0 v 3.15 h 3.33 a 1.82,1.82 0 1 1 0,3.64 h -3.33 v 9.07 a 2,2 0 0 0 2.28,2.31 10,10 0 0 0 1.05,-0.1 1.79,1.79 0 0 1 1.79,1.75 1.82,1.82 0 0 1 -1.12,1.65 8.42,8.42 0 0 1 -2.91,0.49 c -3.12,0 -5.32,-1.36 -5.32,-5.43"
         fill="#00c18b"
         id="path34"
         style="fill:#ffffff" />
      <path
         d="m 109.22,188.9 v -0.07 c 0,-4 3.12,-6 7.63,-6 a 15.43,15.43 0 0 1 5,0.77 v -0.46 c 0,-2.63 -1.61,-4 -4.59,-4 a 11,11 0 0 0 -4.1,0.73 2.39,2.39 0 0 1 -0.67,0.1 1.76,1.76 0 0 1 -1.79,-1.75 1.85,1.85 0 0 1 1.16,-1.68 15.87,15.87 0 0 1 6,-1.08 c 2.77,0 4.83,0.73 6.13,2.07 a 7.67,7.67 0 0 1 2,5.71 v 9.1 a 2,2 0 0 1 -2.07,2 1.91,1.91 0 0 1 -2.07,-1.79 v -0.7 a 7.51,7.51 0 0 1 -6,2.7 c -3.47,0 -6.55,-2 -6.55,-5.71 m 12.67,-1.33 v -1.26 a 11.78,11.78 0 0 0 -4.2,-0.73 c -2.73,0 -4.34,1.16 -4.34,3.08 v 0.07 c 0,1.79 1.58,2.8 3.61,2.8 2.8,0 4.94,-1.61 4.94,-4"
         fill="#00c18b"
         id="path36"
         style="fill:#ffffff" />
      <path
         d="m 129.84,170.59 a 2.08,2.08 0 0 1 2.1,-2.1 2.11,2.11 0 0 1 2.14,2.1 v 21.71 a 2.12,2.12 0 0 1 -4.24,0 z"
         fill="#00c18b"
         id="path38"
         style="fill:#ffffff" />
      <path
         d="M 140.76,79.36 A 115.81,115.81 0 0 0 143.91,62 C 145.76,45.43 142.13,31.91 133.1,21.82 117,3.78 87.28,0 65.2,0 46.49,0 33.32,5.1 24.93,15.6 17.2,25.27 13.45,39.7 13.45,59.72 a 84.52,84.52 0 0 0 2.16,19.61 c 17.3,-0.57 29.85,-6.29 37.3,-17 5.87,-8.44 7.42,-18.3 7.68,-25.09 l 0.11,-4.71 h 7.77 v 0.81 a 3.16,3.16 0 0 0 3.15,3.15 h 13 a 3.16,3.16 0 0 0 3.15,-3.15 v -0.81 h 7.28 l 0.22,7.78 c 0.77,8.57 3.29,16 7.48,22 7.55,10.87 20.33,16.59 38,17"
         fill="#00c18b"
         id="path40"
         style="fill:#ffffff" />
      <rect
         x="68.470001"
         y="75.57"
         width="19.309999"
         height="25.51"
         rx="3.1500001"
         ry="3.1500001"
         fill="#00c18b"
         id="rect42"
         style="fill:#ffffff" />
      <path
         d="m 127.2,104.31 c 5.24,-5.17 9.16,-11.66 12,-19.85 -18.32,-0.74 -31.84,-7 -40.2,-18.56 a 91.73,91.73 0 0 0 3.34,10.17 c 5.69,14.31 14.06,23.81 24.87,28.23"
         fill="#00c18b"
         id="path44"
         style="fill:#ffffff" />
      <path
         d="M 122.93,108 C 111.83,102.61 103.28,92.48 97.49,77.88 97.07,76.82 96.66,75.72 96.27,74.6 l 1.25,43.86 c 10.45,-2 18.77,-5.42 25.41,-10.46"
         fill="#00c18b"
         id="path46"
         style="fill:#ffffff" />
      <rect
         x="68.470001"
         y="43.459999"
         width="19.309999"
         height="25.51"
         rx="3.1500001"
         ry="3.1500001"
         fill="#00c18b"
         id="rect48"
         style="fill:#ffffff" />
      <path
         d="M 53.36,76.08 A 91.85,91.85 0 0 0 56.7,65.91 C 48.42,77.36 35.08,83.6 17.05,84.44 a 51.54,51.54 0 0 0 11.57,19.81 C 39.37,99.8 47.69,90.32 53.36,76.07"
         fill="#00c18b"
         id="path50"
         style="fill:#ffffff" />
      <path
         d="m 59.74,73.67 c -0.49,1.44 -1,2.85 -1.55,4.21 -5.79,14.63 -14.37,24.78 -25.5,30.12 7,5.75 15.71,9.55 26,11.32 z"
         fill="#00c18b"
         id="path52"
         style="fill:#ffffff" />
      <path
         d="m 72.91,120.51 a 152.47,152.47 0 0 0 15.79,-0.77 v -6.8 a 3.84,3.84 0 0 0 -3.83,-3.83 H 71.39 a 3.84,3.84 0 0 0 -3.83,3.83 v 7.42 c 1.73,0.1 3.48,0.15 5.22,0.15 z"
         fill="#00c18b"
         id="path54"
         style="fill:#ffffff" />
    </g>
  </g>
</svg>
