<?xml version="1.0" encoding="UTF-8" standalone="no"?>
<svg
   xmlns:dc="http://purl.org/dc/elements/1.1/"
   xmlns:cc="http://creativecommons.org/ns#"
   xmlns:rdf="http://www.w3.org/1999/02/22-rdf-syntax-ns#"
   xmlns:svg="http://www.w3.org/2000/svg"
   xmlns="http://www.w3.org/2000/svg"
   xmlns:sodipodi="http://sodipodi.sourceforge.net/DTD/sodipodi-0.dtd"
   xmlns:inkscape="http://www.inkscape.org/namespaces/inkscape"
   width="34.642166mm"
   height="31.885136mm"
   viewBox="0 0 34.642166 31.885136"
   version="1.1"
   id="svg8"
   inkscape:version="1.0.1 (3bc2e813f5, 2020-09-07)"
   sodipodi:docname="logo-white.svg">
  <defs
     id="defs2" />
  <sodipodi:namedview
     id="base"
     pagecolor="#ffffff"
     bordercolor="#666666"
     borderopacity="1.0"
     inkscape:pageopacity="0.0"
     inkscape:pageshadow="2"
     inkscape:zoom="1.4"
     inkscape:cx="74.905903"
     inkscape:cy="100.71093"
     inkscape:document-units="mm"
     inkscape:current-layer="Capa_1-2"
     inkscape:document-rotation="0"
     showgrid="false"
     fit-margin-top="0"
     fit-margin-left="0"
     fit-margin-right="0"
     fit-margin-bottom="0"
     inkscape:window-width="1366"
     inkscape:window-height="705"
     inkscape:window-x="-8"
     inkscape:window-y="-8"
     inkscape:window-maximized="1" />
  <metadata
     id="metadata5">
    <rdf:RDF>
      <cc:Work
         rdf:about="">
        <dc:format>image/svg+xml</dc:format>
        <dc:type
           rdf:resource="http://purl.org/dc/dcmitype/StillImage" />
        <dc:title></dc:title>
      </cc:Work>
    </rdf:RDF>
  </metadata>
  <g
     inkscape:label="Layer 1"
     inkscape:groupmode="layer"
     id="layer1"
     transform="translate(-79.441212,-92.982143)">
    <g
       id="Capa_1-2"
       data-name="Capa 1"
       transform="matrix(0.26458333,0,0,0.26458333,75.883157,92.982143)">
      <path
         d="M 140.76,79.36 A 115.81,115.81 0 0 0 143.91,62 C 145.76,45.43 142.13,31.91 133.1,21.82 117,3.78 87.28,0 65.2,0 46.49,0 33.32,5.1 24.93,15.6 17.2,25.27 13.45,39.7 13.45,59.72 a 84.52,84.52 0 0 0 2.16,19.61 c 17.3,-0.57 29.85,-6.29 37.3,-17 5.87,-8.44 7.42,-18.3 7.68,-25.09 l 0.11,-4.71 h 7.77 v 0.81 a 3.16,3.16 0 0 0 3.15,3.15 h 13 a 3.16,3.16 0 0 0 3.15,-3.15 v -0.81 h 7.28 l 0.22,7.78 c 0.77,8.57 3.29,16 7.48,22 7.55,10.87 20.33,16.59 38,17"
         fill="#00c18b"
         id="path40"
         style="fill:#ffffff" />
      <rect
         x="68.470001"
         y="75.57"
         width="19.309999"
         height="25.51"
         rx="3.1500001"
         ry="3.1500001"
         fill="#00c18b"
         id="rect42"
         style="fill:#ffffff" />
      <path
         d="m 127.2,104.31 c 5.24,-5.17 9.16,-11.66 12,-19.85 -18.32,-0.74 -31.84,-7 -40.2,-18.56 a 91.73,91.73 0 0 0 3.34,10.17 c 5.69,14.31 14.06,23.81 24.87,28.23"
         fill="#00c18b"
         id="path44"
         style="fill:#ffffff" />
      <path
         d="M 122.93,108 C 111.83,102.61 103.28,92.48 97.49,77.88 97.07,76.82 96.66,75.72 96.27,74.6 l 1.25,43.86 c 10.45,-2 18.77,-5.42 25.41,-10.46"
         fill="#00c18b"
         id="path46"
         style="fill:#ffffff" />
      <rect
         x="68.470001"
         y="43.459999"
         width="19.309999"
         height="25.51"
         rx="3.1500001"
         ry="3.1500001"
         fill="#00c18b"
         id="rect48"
         style="fill:#ffffff" />
      <path
         d="M 53.36,76.08 A 91.85,91.85 0 0 0 56.7,65.91 C 48.42,77.36 35.08,83.6 17.05,84.44 a 51.54,51.54 0 0 0 11.57,19.81 C 39.37,99.8 47.69,90.32 53.36,76.07"
         fill="#00c18b"
         id="path50"
         style="fill:#ffffff" />
      <path
         d="m 59.74,73.67 c -0.49,1.44 -1,2.85 -1.55,4.21 -5.79,14.63 -14.37,24.78 -25.5,30.12 7,5.75 15.71,9.55 26,11.32 z"
         fill="#00c18b"
         id="path52"
         style="fill:#ffffff" />
      <path
         d="m 72.91,120.51 a 152.47,152.47 0 0 0 15.79,-0.77 v -6.8 a 3.84,3.84 0 0 0 -3.83,-3.83 H 71.39 a 3.84,3.84 0 0 0 -3.83,3.83 v 7.42 c 1.73,0.1 3.48,0.15 5.22,0.15 z"
         fill="#00c18b"
         id="path54"
         style="fill:#ffffff" />
    </g>
  </g>
</svg>
