<svg xmlns="http://www.w3.org/2000/svg" viewBox="0 0 157.82 200">
  <title>Recurso 2</title>
  <g id="Capa_2" data-name="Capa 2">
    <g id="Capa_1-2" data-name="Capa 1">
      <path d="M1.15,159.06A2.84,2.84,0,0,1,0,156.77,2.8,2.8,0,0,1,2.84,154a2.93,2.93,0,0,1,1.74.55A11.66,11.66,0,0,0,11.65,157c2.49,0,4-1,4-2.61v-.08c0-1.54-.95-2.33-5.57-3.51-5.57-1.42-9.16-3-9.16-8.45v-.08c0-5,4-8.33,9.67-8.33a16,16,0,0,1,8.77,2.45,2.81,2.81,0,0,1-1.5,5.21,2.92,2.92,0,0,1-1.54-.43,11.5,11.5,0,0,0-5.8-1.86c-2.33,0-3.55,1.07-3.55,2.41v.08c0,1.82,1.18,2.41,6,3.63,5.61,1.46,8.77,3.48,8.77,8.29v.08c0,5.49-4.19,8.57-10.15,8.57a17.85,17.85,0,0,1-10.39-3.32" fill="#00c18b"/>
      <path d="M23.89,155.9v-.08c0-4.62,3.51-6.75,8.53-6.75a15.06,15.06,0,0,1,5.17.87v-.36c0-2.49-1.54-3.87-4.54-3.87a13.72,13.72,0,0,0-4.15.59,2.55,2.55,0,0,1-.87.16A2.45,2.45,0,0,1,25.55,144a2.49,2.49,0,0,1,1.62-2.33,18.43,18.43,0,0,1,6.75-1.11c3.28,0,5.65.87,7.15,2.37s2.29,3.91,2.29,6.75v9.63a2.88,2.88,0,0,1-2.92,2.88,2.69,2.69,0,0,1-2.88-2.49v0a8.14,8.14,0,0,1-6.4,2.69c-4,0-7.27-2.29-7.27-6.48m13.78-1.38v-1.07a9.29,9.29,0,0,0-3.83-.79c-2.57,0-4.15,1-4.15,2.92v.08c0,1.62,1.34,2.57,3.28,2.57,2.8,0,4.7-1.54,4.7-3.71" fill="#00c18b"/>
      <path d="M47.34,143.58a3,3,0,1,1,6,0v.24c1.38-1.78,3.16-3.4,6.2-3.4,4.54,0,7.19,3,7.19,7.86v10.94a3,3,0,1,1-6,0v-9c0-2.84-1.34-4.31-3.63-4.31s-3.75,1.46-3.75,4.31v9a3,3,0,1,1-6,0Z" fill="#00c18b"/>
      <path d="M71.75,156V146h-.2a2.57,2.57,0,0,1,0-5.13h.2v-2.65a3,3,0,0,1,6,0v2.65h2.64a2.57,2.57,0,1,1,0,5.13H77.75v9c0,1.38.59,2.05,1.93,2.05.2,0,.59,0,.71,0a2.5,2.5,0,0,1,2.49,2.49,2.45,2.45,0,0,1-1.54,2.25,8.87,8.87,0,0,1-3.44.59c-3.67,0-6.16-1.46-6.16-6.36" fill="#00c18b"/>
      <path d="M84.7,155.9v-.08c0-4.62,3.51-6.75,8.53-6.75a15.06,15.06,0,0,1,5.17.87v-.36c0-2.49-1.54-3.87-4.54-3.87a13.72,13.72,0,0,0-4.15.59,2.56,2.56,0,0,1-.87.16A2.44,2.44,0,0,1,86.36,144,2.49,2.49,0,0,1,88,141.69a18.43,18.43,0,0,1,6.75-1.11c3.28,0,5.65.87,7.15,2.37s2.29,3.91,2.29,6.75v9.63a2.88,2.88,0,0,1-2.92,2.88,2.69,2.69,0,0,1-2.88-2.49v0a8.14,8.14,0,0,1-6.4,2.69c-4,0-7.27-2.29-7.27-6.48m13.78-1.38v-1.07a9.3,9.3,0,0,0-3.83-.79c-2.57,0-4.15,1-4.15,2.92v.08c0,1.62,1.34,2.57,3.28,2.57,2.8,0,4.7-1.54,4.7-3.71" fill="#00c18b"/>
      <path d="M115.49,137.38a3,3,0,0,1,3-3H134a2.76,2.76,0,1,1,0,5.53H121.58v5.88h10.66a2.76,2.76,0,0,1,0,5.53H121.58v7.9a3,3,0,0,1-6.08,0Z" fill="#00c18b"/>
      <path d="M148.23,162.46c-6.36,0-11.06-4.46-11.06-10.94v-.08c0-6,4.3-11,10.46-11a10,10,0,0,1,10.19,10.19,2.74,2.74,0,0,1-2.8,2.88H143.13a4.91,4.91,0,0,0,5.17,4.15,6.93,6.93,0,0,0,4.26-1.42,2.24,2.24,0,0,1,1.46-.47,2.29,2.29,0,0,1,2.33,2.37,2.35,2.35,0,0,1-.79,1.78,11,11,0,0,1-7.34,2.57m3.87-12.71c-.36-2.69-1.94-4.5-4.46-4.5s-4.11,1.78-4.58,4.5Z" fill="#00c18b"/>
      <path d="M22.56,182V182A12.4,12.4,0,0,1,35.2,169.29a12.85,12.85,0,0,1,8.4,2.77,2.15,2.15,0,0,1,.84,1.72A2.15,2.15,0,0,1,41,175.46a8.9,8.9,0,0,0-5.85-2.21c-4.66,0-8.09,3.85-8.09,8.65V182c0,4.8,3.4,8.68,8.09,8.68a8.78,8.78,0,0,0,6.13-2.35,2,2,0,0,1,1.3-.49,2,2,0,0,1,1.33,3.54A12.52,12.52,0,0,1,35,194.64,12.33,12.33,0,0,1,22.56,182" fill="#00c18b"/>
      <path d="M46.37,188.9v-.07c0-4,3.12-6,7.63-6a15.43,15.43,0,0,1,5,.77v-.46c0-2.63-1.61-4-4.59-4a11,11,0,0,0-4.1.73,2.39,2.39,0,0,1-.67.1,1.76,1.76,0,0,1-1.79-1.75A1.85,1.85,0,0,1,49,176.58a15.87,15.87,0,0,1,6-1.08c2.77,0,4.83.73,6.13,2.07a7.67,7.67,0,0,1,2,5.71v9.1a2,2,0,0,1-2.07,2,1.91,1.91,0,0,1-2.07-1.79v-.7a7.52,7.52,0,0,1-6,2.7c-3.47,0-6.55-2-6.55-5.71M59,187.57v-1.26a11.79,11.79,0,0,0-4.2-.73c-2.73,0-4.34,1.16-4.34,3.08v.07c0,1.79,1.58,2.8,3.61,2.8,2.8,0,4.94-1.61,4.94-4" fill="#00c18b"/>
      <path d="M66.75,177.66a2.09,2.09,0,0,1,2.1-2.14A2.12,2.12,0,0,1,71,177.66v1.16a7.4,7.4,0,0,1,6.3-3.47c4.34,0,8.58,3.43,8.58,9.59V185c0,6.13-4.2,9.59-8.58,9.59a7.55,7.55,0,0,1-6.3-3.26v6.55a2.12,2.12,0,0,1-4.24,0ZM81.56,185v-.07c0-3.57-2.42-5.92-5.29-5.92s-5.39,2.38-5.39,5.92V185c0,3.54,2.52,5.92,5.39,5.92s5.29-2.28,5.29-5.92" fill="#00c18b"/>
      <path d="M88.77,170.76a2.45,2.45,0,0,1,4.83,0V171a2.44,2.44,0,0,1-4.83,0Zm.32,6.9a2.09,2.09,0,0,1,2.1-2.14,2.12,2.12,0,0,1,2.14,2.14V192.3a2.12,2.12,0,0,1-4.24,0Z" fill="#00c18b"/>
      <path d="M98.33,189.11v-9.73h-.7a1.82,1.82,0,1,1,0-3.64h.7v-3.15a2.12,2.12,0,0,1,4.24,0v3.15h3.33a1.82,1.82,0,1,1,0,3.64h-3.33v9.07a2,2,0,0,0,2.28,2.31,10,10,0,0,0,1.05-.1,1.79,1.79,0,0,1,1.79,1.75,1.82,1.82,0,0,1-1.12,1.65,8.42,8.42,0,0,1-2.91.49c-3.12,0-5.32-1.36-5.32-5.43" fill="#00c18b"/>
      <path d="M109.22,188.9v-.07c0-4,3.12-6,7.63-6a15.43,15.43,0,0,1,5,.77v-.46c0-2.63-1.61-4-4.59-4a11,11,0,0,0-4.1.73,2.39,2.39,0,0,1-.67.1,1.76,1.76,0,0,1-1.79-1.75,1.85,1.85,0,0,1,1.16-1.68,15.87,15.87,0,0,1,6-1.08c2.77,0,4.83.73,6.13,2.07a7.67,7.67,0,0,1,2,5.71v9.1a2,2,0,0,1-2.07,2,1.91,1.91,0,0,1-2.07-1.79v-.7a7.51,7.51,0,0,1-6,2.7c-3.47,0-6.55-2-6.55-5.71m12.67-1.33v-1.26a11.78,11.78,0,0,0-4.2-.73c-2.73,0-4.34,1.16-4.34,3.08v.07c0,1.79,1.58,2.8,3.61,2.8,2.8,0,4.94-1.61,4.94-4" fill="#00c18b"/>
      <path d="M129.84,170.59a2.08,2.08,0,0,1,2.1-2.1,2.11,2.11,0,0,1,2.14,2.1V192.3a2.12,2.12,0,0,1-4.24,0Z" fill="#00c18b"/>
      <path d="M140.76,79.36A115.81,115.81,0,0,0,143.91,62c1.85-16.57-1.78-30.09-10.81-40.18C117,3.78,87.28,0,65.2,0,46.49,0,33.32,5.1,24.93,15.6,17.2,25.27,13.45,39.7,13.45,59.72a84.52,84.52,0,0,0,2.16,19.61c17.3-.57,29.85-6.29,37.3-17,5.87-8.44,7.42-18.3,7.68-25.09l.11-4.71h7.77v.81a3.16,3.16,0,0,0,3.15,3.15h13a3.16,3.16,0,0,0,3.15-3.15v-.81h7.28l.22,7.78c.77,8.57,3.29,16,7.48,22,7.55,10.87,20.33,16.59,38,17" fill="#00c18b"/>
      <rect x="68.47" y="75.57" width="19.31" height="25.51" rx="3.15" ry="3.15" fill="#00c18b"/>
      <path d="M127.2,104.31c5.24-5.17,9.16-11.66,12-19.85-18.32-.74-31.84-7-40.2-18.56a91.73,91.73,0,0,0,3.34,10.17c5.69,14.31,14.06,23.81,24.87,28.23" fill="#00c18b"/>
      <path d="M122.93,108c-11.1-5.39-19.65-15.52-25.44-30.12-.42-1.06-.83-2.16-1.22-3.28l1.25,43.86c10.45-2,18.77-5.42,25.41-10.46" fill="#00c18b"/>
      <rect x="68.47" y="43.46" width="19.31" height="25.51" rx="3.15" ry="3.15" fill="#00c18b"/>
      <path d="M53.36,76.08A91.85,91.85,0,0,0,56.7,65.91C48.42,77.36,35.08,83.6,17.05,84.44a51.54,51.54,0,0,0,11.57,19.81c10.75-4.45,19.07-13.93,24.74-28.18" fill="#00c18b"/>
      <path d="M59.74,73.67c-.49,1.44-1,2.85-1.55,4.21C52.4,92.51,43.82,102.66,32.69,108c7,5.75,15.71,9.55,26,11.32Z" fill="#00c18b"/>
      <path d="M72.91,120.51a152.47,152.47,0,0,0,15.79-.77v-6.8a3.84,3.84,0,0,0-3.83-3.83H71.39a3.84,3.84,0,0,0-3.83,3.83v7.42c1.73.1,3.48.15,5.22.15Z" fill="#00c18b"/>
    </g>
  </g>
</svg>